# xmcd
#
# Track frame offsets: 
#        183
#        12955
#        27555
#        39678
#        53898
#        65738
#        78758
#        90838
#        105450
#        119588
#        134348
#        147938
#        163328
#        177703
#        192298
#        212700
#        227563
#        239540
#        257913
#        271983
#        285353
#        298828
#        312190
#        324040
#        337490
#
# Disc length: 4699 seconds
#
# Revision: 2
# Processed by: cddbd v1.5.2PL0 Copyright (c) Steve Scherf et al.
# Submitted via: ExactAudioCopy v0.99pb3
#
DISCID=7c125919
DTITLE=Ella Fitzgerald - the complete recordings 1935-1937 - CD2
DYEAR=1991
DGENRE=Jazz
TTITLE0=I'll Chase the Blues Away
TTITLE1=Love and Kisses
TTITLE2=Rhythm and Romance
TTITLE3=I'll Chase the Blues Away
TTITLE4=My Melancholy Baby
TTITLE5=All My Life
TTITLE6=Crying My Heart Out for You
TTITLE7=Under the Spell of the Blues
TTITLE8=When I Get Low I Get High
TTITLE9=Sing Me a Swing Song (And Let Me Dance)
TTITLE10=A Little Bit Later On
TTITLE11=Love, You're Just a Laugh
TTITLE12=Devoting My Time to You
TTITLE13=You'll Have to Swing It (Mr. Paganini)
TTITLE14=Swinging on the Reservation
TTITLE15=I Got the Spring Fever Blues
TTITLE16=Vote for Mr. Rhythm
TTITLE17=Goodnight My Love
TTITLE18=Take Another Guess
TTITLE19=Didja Mean It
TTITLE20=My Last Affair
TTITLE21=Organ Grinder's Swing
TTITLE22=Shine
TTITLE23=Darktown Strutters' Ball
TTITLE24=Take Another Guess
EXTD=YEAR: 1991
EXTT0=
EXTT1=
EXTT2=
EXTT3=
EXTT4=
EXTT5=
EXTT6=
EXTT7=
EXTT8=
EXTT9=
EXTT10=
EXTT11=
EXTT12=
EXTT13=
EXTT14=
EXTT15=
EXTT16=
EXTT17=
EXTT18=
EXTT19=
EXTT20=
EXTT21=
EXTT22=
EXTT23=
EXTT24=
PLAYORDER=
